<svg width="80" height="60" viewBox="0 0 80 60" fill="none" xmlns="http://www.w3.org/2000/svg">
<g clip-path="url(#clip0_704_2)">
<path d="M0 0H80V20H0V0Z" fill="#FF9933"/>
<path d="M0 20H80V40H0V20Z" fill="white"/>
<path d="M0 40H80V60H0V40Z" fill="#128807"/>
<path d="M40 38C44.4183 38 48 34.4183 48 30C48 25.5817 44.4183 22 40 22C35.5817 22 32 25.5817 32 30C32 34.4183 35.5817 38 40 38Z" fill="#000088"/>
<path d="M40 37C43.866 37 47 33.866 47 30C47 26.134 43.866 23 40 23C36.134 23 33 26.134 33 30C33 33.866 36.134 37 40 37Z" fill="white"/>
<path d="M40.0016 31.3996C40.7748 31.3996 41.4016 30.7728 41.4016 29.9996C41.4016 29.2264 40.7748 28.5996 40.0016 28.5996C39.2284 28.5996 38.6016 29.2264 38.6016 29.9996C38.6016 30.7728 39.2284 31.3996 40.0016 31.3996Z" fill="#000088"/>
<path d="M46.8963 31.2612C47.0879 31.2864 47.2637 31.1515 47.289 30.9599C47.3142 30.7682 47.1793 30.5924 46.9876 30.5672C46.796 30.5419 46.6202 30.6768 46.5949 30.8685C46.5697 31.0601 46.7046 31.2359 46.8963 31.2612Z" fill="#000088"/>
<path d="M40.0017 37.0008L40.2417 32.8008L40.0017 30.8008L39.7617 32.8008L40.0017 37.0008Z" fill="#000088"/>
<path d="M46.3328 33.0023C46.5114 33.0763 46.7161 32.9915 46.7901 32.8129C46.8641 32.6343 46.7793 32.4296 46.6007 32.3556C46.4221 32.2816 46.2174 32.3665 46.1434 32.545C46.0694 32.7236 46.1542 32.9284 46.3328 33.0023Z" fill="#000088"/>
<path d="M38.1896 36.7618L39.5085 32.767L39.7943 30.7731L39.0449 32.6428L38.1896 36.7618Z" fill="#000088"/>
<path d="M45.3437 34.5389C45.4971 34.6566 45.7168 34.6277 45.8345 34.4743C45.9521 34.321 45.9232 34.1012 45.7699 33.9836C45.6165 33.8659 45.3968 33.8948 45.2791 34.0482C45.1614 34.2015 45.1904 34.4212 45.3437 34.5389Z" fill="#000088"/>
<path d="M36.5024 36.0616L38.8102 32.5443L39.6024 30.6923L38.3945 32.3043L36.5024 36.0616Z" fill="#000088"/>
<path d="M43.9858 35.7673C44.1035 35.9206 44.3232 35.9496 44.4766 35.8319C44.6299 35.7142 44.6589 35.4945 44.5412 35.3412C44.4235 35.1878 44.2038 35.1589 44.0505 35.2765C43.8971 35.3942 43.8682 35.6139 43.9858 35.7673Z" fill="#000088"/>
<path d="M35.0513 34.9503L38.1908 32.1501L39.4353 30.5662L37.8514 31.8107L35.0513 34.9503Z" fill="#000088"/>
<path d="M42.3544 36.6C42.4284 36.7786 42.6331 36.8634 42.8117 36.7894C42.9903 36.7155 43.0751 36.5107 43.0011 36.3321C42.9272 36.1536 42.7224 36.0688 42.5438 36.1427C42.3652 36.2167 42.2804 36.4214 42.3544 36.6Z" fill="#000088"/>
<path d="M33.9381 33.4993L37.6954 31.6071L39.3075 30.3993L37.4554 31.1914L33.9381 33.4993Z" fill="#000088"/>
<path d="M40.5704 36.9852C40.5957 37.1769 40.7715 37.3118 40.9631 37.2866C41.1548 37.2613 41.2897 37.0855 41.2644 36.8939C41.2392 36.7022 41.0634 36.5673 40.8717 36.5926C40.6801 36.6178 40.5452 36.7936 40.5704 36.9852Z" fill="#000088"/>
<path d="M33.2413 31.8111L37.3604 30.9559L39.2301 30.2064L37.2361 30.4922L33.2413 31.8111Z" fill="#000088"/>
<path d="M38.7408 36.8943C38.7155 37.086 38.8504 37.2618 39.0421 37.287C39.2337 37.3122 39.4096 37.1773 39.4348 36.9857C39.46 36.794 39.3251 36.6182 39.1335 36.593C38.9418 36.5678 38.766 36.7027 38.7408 36.8943Z" fill="#000088"/>
<path d="M33.0031 29.9998L37.2031 30.2398L39.2031 29.9998L37.2031 29.7598L33.0031 29.9998Z" fill="#000088"/>
<path d="M36.9967 36.3328C36.9227 36.5114 37.0075 36.7161 37.1861 36.7901C37.3647 36.8641 37.5694 36.7793 37.6434 36.6007C37.7174 36.4221 37.6326 36.2174 37.454 36.1434C37.2754 36.0694 37.0707 36.1542 36.9967 36.3328Z" fill="#000088"/>
<path d="M33.2382 28.1877L37.233 29.5066L39.2269 29.7924L37.3572 29.0429L33.2382 28.1877Z" fill="#000088"/>
<path d="M35.4581 35.3398C35.3405 35.4932 35.3694 35.7129 35.5228 35.8306C35.6761 35.9482 35.8958 35.9193 36.0135 35.766C36.1312 35.6126 36.1022 35.3929 35.9489 35.2752C35.7955 35.1575 35.5758 35.1865 35.4581 35.3398Z" fill="#000088"/>
<path d="M33.9325 26.4994L37.4498 28.8073L39.3019 29.5994L37.6898 28.3916L33.9325 26.4994Z" fill="#000088"/>
<path d="M34.2298 33.9829C34.0764 34.1006 34.0475 34.3203 34.1652 34.4737C34.2829 34.627 34.5026 34.6559 34.6559 34.5383C34.8093 34.4206 34.8382 34.2009 34.7205 34.0475C34.6029 33.8942 34.3831 33.8652 34.2298 33.9829Z" fill="#000088"/>
<path d="M35.0439 25.0493L37.844 28.1889L39.428 29.4334L38.1834 27.8495L35.0439 25.0493Z" fill="#000088"/>
<path d="M33.397 32.3554C33.2185 32.4294 33.1337 32.6341 33.2076 32.8127C33.2816 32.9913 33.4863 33.0761 33.6649 33.0021C33.8435 32.9281 33.9283 32.7234 33.8543 32.5448C33.7804 32.3662 33.5756 32.2814 33.397 32.3554Z" fill="#000088"/>
<path d="M36.4968 23.9381L38.389 27.6954L39.5968 29.3075L38.8047 27.4554L36.4968 23.9381Z" fill="#000088"/>
<path d="M33.0108 30.5665C32.8192 30.5917 32.6843 30.7676 32.7095 30.9592C32.7348 31.1509 32.9106 31.2858 33.1022 31.2605C33.2939 31.2353 33.4288 31.0595 33.4035 30.8678C33.3783 30.6762 33.2025 30.5413 33.0108 30.5665Z" fill="#000088"/>
<path d="M38.1869 23.2384L39.0422 27.3574L39.7916 29.2272L39.5058 27.2332L38.1869 23.2384Z" fill="#000088"/>
<path d="M33.1037 28.7388C32.9121 28.7136 32.7363 28.8485 32.711 29.0401C32.6858 29.2318 32.8207 29.4076 33.0124 29.4328C33.204 29.4581 33.3798 29.3232 33.4051 29.1315C33.4303 28.9399 33.2954 28.7641 33.1037 28.7388Z" fill="#000088"/>
<path d="M39.9983 22.9992L39.7583 27.1992L39.9983 29.1992L40.2383 27.1992L39.9983 22.9992Z" fill="#000088"/>
<path d="M33.6672 26.9977C33.4886 26.9237 33.2839 27.0085 33.2099 27.1871C33.1359 27.3657 33.2207 27.5704 33.3993 27.6444C33.5779 27.7184 33.7826 27.6335 33.8566 27.455C33.9306 27.2764 33.8458 27.0716 33.6672 26.9977Z" fill="#000088"/>
<path d="M41.8104 23.2382L40.4915 27.233L40.2057 29.2269L40.9551 27.3572L41.8104 23.2382Z" fill="#000088"/>
<path d="M34.6563 25.4611C34.5029 25.3434 34.2832 25.3723 34.1655 25.5257C34.0479 25.679 34.0768 25.8988 34.2301 26.0164C34.3835 26.1341 34.6032 26.1052 34.7209 25.9518C34.8386 25.7985 34.8096 25.5788 34.6563 25.4611Z" fill="#000088"/>
<path d="M43.4976 23.9384L41.1898 27.4557L40.3976 29.3077L41.6055 27.6957L43.4976 23.9384Z" fill="#000088"/>
<path d="M36.0142 24.2327C35.8965 24.0794 35.6768 24.0504 35.5234 24.1681C35.3701 24.2858 35.3411 24.5055 35.4588 24.6588C35.5765 24.8122 35.7962 24.8411 35.9495 24.7235C36.1029 24.6058 36.1318 24.3861 36.0142 24.2327Z" fill="#000088"/>
<path d="M44.9487 25.0497L41.8092 27.8499L40.5647 29.4338L42.1486 28.1893L44.9487 25.0497Z" fill="#000088"/>
<path d="M37.6456 23.4C37.5716 23.2214 37.3669 23.1366 37.1883 23.2106C37.0097 23.2845 36.9249 23.4893 36.9989 23.6679C37.0728 23.8464 37.2776 23.9312 37.4562 23.8573C37.6348 23.7833 37.7196 23.5786 37.6456 23.4Z" fill="#000088"/>
<path d="M46.0619 26.5007L42.3046 28.3929L40.6925 29.6007L42.5446 28.8086L46.0619 26.5007Z" fill="#000088"/>
<path d="M39.4296 23.0148C39.4043 22.8231 39.2285 22.6882 39.0369 22.7134C38.8452 22.7387 38.7103 22.9145 38.7356 23.1061C38.7608 23.2978 38.9366 23.4327 39.1283 23.4074C39.3199 23.3822 39.4548 23.2064 39.4296 23.0148Z" fill="#000088"/>
<path d="M46.7587 28.1889L42.6396 29.0441L40.7699 29.7936L42.7639 29.5078L46.7587 28.1889Z" fill="#000088"/>
<path d="M41.2592 23.1057C41.2845 22.914 41.1496 22.7382 40.9579 22.713C40.7663 22.6878 40.5904 22.8227 40.5652 23.0143C40.54 23.206 40.6749 23.3818 40.8665 23.407C41.0582 23.4322 41.234 23.2973 41.2592 23.1057Z" fill="#000088"/>
<path d="M46.9969 30.0002L42.7969 29.7602L40.7969 30.0002L42.7969 30.2402L46.9969 30.0002Z" fill="#000088"/>
<path d="M43.0033 23.6672C43.0773 23.4886 42.9925 23.2839 42.8139 23.2099C42.6353 23.1359 42.4306 23.2207 42.3566 23.3993C42.2826 23.5779 42.3674 23.7826 42.546 23.8566C42.7246 23.9306 42.9293 23.8458 43.0033 23.6672Z" fill="#000088"/>
<path d="M46.7618 31.8123L42.767 30.4934L40.7731 30.2076L42.6428 30.9571L46.7618 31.8123Z" fill="#000088"/>
<path d="M44.5379 24.6592C44.6556 24.5058 44.6267 24.2861 44.4733 24.1685C44.32 24.0508 44.1003 24.0797 43.9826 24.2331C43.8649 24.3864 43.8939 24.6061 44.0472 24.7238C44.2006 24.8415 44.4203 24.8126 44.5379 24.6592Z" fill="#000088"/>
<path d="M46.0636 33.4996L42.5463 31.1917L40.6942 30.3996L42.3063 31.6074L46.0636 33.4996Z" fill="#000088"/>
<path d="M45.7663 26.0161C45.9197 25.8984 45.9486 25.6787 45.8309 25.5254C45.7132 25.372 45.4935 25.3431 45.3402 25.4608C45.1868 25.5784 45.1579 25.7981 45.2756 25.9515C45.3932 26.1049 45.613 26.1338 45.7663 26.0161Z" fill="#000088"/>
<path d="M44.9522 34.9497L42.1521 31.8102L40.5681 30.5656L41.8127 32.1496L44.9522 34.9497Z" fill="#000088"/>
<path d="M46.599 27.6436C46.7776 27.5697 46.8624 27.3649 46.7885 27.1863C46.7145 27.0078 46.5098 26.9229 46.3312 26.9969C46.1526 27.0709 46.0678 27.2756 46.1418 27.4542C46.2157 27.6328 46.4205 27.7176 46.599 27.6436Z" fill="#000088"/>
<path d="M43.4993 36.0609L41.6071 32.3036L40.3993 30.6915L41.1914 32.5436L43.4993 36.0609Z" fill="#000088"/>
<path d="M46.9852 29.4325C47.1769 29.4073 47.3118 29.2315 47.2866 29.0398C47.2613 28.8482 47.0855 28.7133 46.8939 28.7385C46.7022 28.7637 46.5673 28.9395 46.5926 29.1312C46.6178 29.3228 46.7936 29.4577 46.9852 29.4325Z" fill="#000088"/>
<path d="M41.8092 36.7606L40.9539 32.6416L40.2045 30.7719L40.4903 32.7658L41.8092 36.7606Z" fill="#000088"/>
</g>
<defs>
<clipPath id="clip0_704_2">
<rect width="80" height="60" fill="white"/>
</clipPath>
</defs>
</svg>
