<svg width="80" height="60" viewBox="0 0 80 60" fill="none" xmlns="http://www.w3.org/2000/svg">
<g clip-path="url(#clip0_704_113)">
<path fill-rule="evenodd" clip-rule="evenodd" d="M0 0H114.001V4.61538H0V0ZM0 9.23088H114.001V13.8462H0V9.23088ZM0 18.4618H114.001V23.0771H0V18.4618ZM0 27.6926H114.001V32.308H0V27.6926ZM0 36.9234H114.001V41.5389H0V36.9234ZM0 46.1543H114.001V50.7697H0V46.1543ZM0 55.3851H114.001V60.0006H0V55.3851Z" fill="#BD3D44"/>
<path fill-rule="evenodd" clip-rule="evenodd" d="M0 4.61523H114.001V9.23073H0V4.61523ZM0 13.8461H114.001V18.4616H0V13.8461ZM0 23.077H114.001V27.6925H0V23.077ZM0 32.3079H114.001V36.9234H0V32.3079ZM0 41.5387H114.001V46.1541H0V41.5387ZM0 50.7696H114.001V55.385H0V50.7696Z" fill="white"/>
<path fill-rule="evenodd" clip-rule="evenodd" d="M0 0H45.6V32.3075H0V0Z" fill="#192F5D"/>
<path fill-rule="evenodd" clip-rule="evenodd" d="M3.80047 1.38281L4.21547 2.65956H5.55797L4.47172 3.44894L4.88672 4.72581L3.80047 3.93656L2.71422 4.72581L3.12922 3.44894L2.04297 2.65956H3.38547L3.80047 1.38281ZM11.4005 1.38281L11.8155 2.65956H13.1582L12.0718 3.44894L12.4868 4.72581L11.4005 3.93656L10.3143 4.72581L10.7292 3.44894L9.64297 2.65956H10.9856L11.4005 1.38281ZM19.0007 1.38281L19.4157 2.65956H20.7583L19.6721 3.44894L20.0871 4.72581L19.0008 3.93656L17.9146 4.72581L18.3295 3.44894L17.2432 2.65956H18.586L19.0007 1.38281ZM26.6007 1.38281L27.0155 2.65956H28.358L27.2718 3.44894L27.6867 4.72581L26.6006 3.93656L25.5143 4.72581L25.9293 3.44894L24.843 2.65956H26.1857L26.6007 1.38281ZM34.2007 1.38281L34.6157 2.65956H35.9583L34.8721 3.44894L35.2871 4.72581L34.2007 3.93656L33.1146 4.72581L33.5295 3.44894L32.4432 2.65956H33.7858L34.2007 1.38281ZM41.801 1.38281L42.216 2.65956H43.5586L42.4723 3.44894L42.8873 4.72581L41.8011 3.93656L40.7147 4.72581L41.1297 3.44894L40.0435 2.65956H41.3862L41.801 1.38281ZM7.60072 4.61356L8.01547 5.89044H9.35822L8.27197 6.67956L8.68697 7.95656L7.60072 7.16744L6.51447 7.95656L6.92934 6.67969L5.84309 5.89044H7.18584L7.60072 4.61356ZM15.2005 4.61356L15.6155 5.89044H16.958L15.8717 6.67956L16.2867 7.95656L15.2005 7.16744L14.1142 7.95656L14.5292 6.67969L13.4428 5.89044H14.7856L15.2005 4.61356ZM22.8007 4.61356L23.2156 5.89044H24.5583L23.472 6.67956L23.887 7.95656L22.8006 7.16744L21.7145 7.95656L22.1293 6.67969L21.0431 5.89044H22.3857L22.8007 4.61356ZM30.4008 4.61356L30.8158 5.89044H32.1585L31.0722 6.67956L31.4872 7.95656L30.401 7.16744L29.3146 7.95656L29.7297 6.67969L28.6435 5.89044H29.9862L30.4008 4.61356ZM38.0008 4.61356L38.4156 5.89044H39.7581L38.672 6.67956L39.0868 7.95656L38.0007 7.16744L36.9145 7.95656L37.3295 6.67969L36.2431 5.89044H37.5858L38.0008 4.61356ZM3.80047 7.84431L4.21547 9.12119H5.55797L4.47172 9.91044L4.88672 11.1874L3.80047 10.3983L2.71422 11.1874L3.12922 9.91056L2.04297 9.12131H3.38547L3.80047 7.84431ZM11.4005 7.84431L11.8155 9.12119H13.1582L12.0718 9.91044L12.4867 11.1874L11.4005 10.3982L10.3143 11.1874L10.7292 9.91056L9.64297 9.12131H10.9856L11.4005 7.84431ZM19.0007 7.84431L19.4157 9.12119H20.7583L19.6721 9.91044L20.0871 11.1873L19.0008 10.3982L17.9146 11.1873L18.3295 9.91044L17.2432 9.12119H18.586L19.0007 7.84431ZM26.6007 7.84431L27.0155 9.12119H28.358L27.2718 9.91044L27.6867 11.1874L26.6006 10.3983L25.5143 11.1874L25.9293 9.91056L24.843 9.12131H26.1857L26.6007 7.84431ZM34.2007 7.84431L34.6157 9.12119H35.9583L34.8721 9.91044L35.2871 11.1873L34.2007 10.3982L33.1146 11.1873L33.5295 9.91044L32.4432 9.12119H33.7858L34.2007 7.84431ZM41.801 7.84431L42.216 9.12119H43.5586L42.4723 9.91044L42.8873 11.1873L41.8011 10.3982L40.7147 11.1873L41.1297 9.91044L40.0435 9.12119H41.3862L41.801 7.84431ZM7.60072 11.0751L8.01547 12.3521H9.35822L8.27197 13.1412L8.68697 14.4182L7.60072 13.6291L6.51447 14.4182L6.92934 13.1412L5.84309 12.3521H7.18584L7.60072 11.0751ZM15.2005 11.0751L15.6155 12.3521H16.958L15.8717 13.1412L16.2867 14.4182L15.2005 13.6291L14.1142 14.4182L14.5292 13.1412L13.4428 12.3521H14.7856L15.2005 11.0751ZM22.8007 11.0751L23.2156 12.3521H24.5583L23.472 13.1412L23.887 14.4182L22.8006 13.6291L21.7145 14.4182L22.1293 13.1412L21.0431 12.3521H22.3857L22.8007 11.0751ZM30.4008 11.0751L30.8158 12.3521H32.1585L31.0722 13.1412L31.4872 14.4182L30.401 13.6291L29.3146 14.4182L29.7296 13.1412L28.6433 12.3521H29.9861L30.4008 11.0751ZM38.0008 11.0751L38.4156 12.3521H39.7581L38.672 13.1412L39.0868 14.4182L38.0007 13.6291L36.9145 14.4182L37.3295 13.1412L36.2431 12.3521H37.5857L38.0008 11.0751ZM3.80047 14.3059L4.21547 15.5828H5.55797L4.47172 16.3721L4.88672 17.6489L3.80047 16.8598L2.71422 17.6489L3.12922 16.3721L2.04297 15.5828H3.38547L3.80047 14.3059ZM11.4005 14.3059L11.8155 15.5828H13.1582L12.0718 16.3721L12.4868 17.6489L11.4005 16.8598L10.3143 17.6489L10.7292 16.3721L9.64297 15.5828H10.9856L11.4005 14.3059ZM19.0007 14.3059L19.4157 15.5828H20.7583L19.6721 16.3721L20.0871 17.6489L19.0008 16.8598L17.9146 17.6489L18.3295 16.3721L17.2432 15.5828H18.586L19.0007 14.3059ZM26.6007 14.3059L27.0155 15.5828H28.358L27.2718 16.3721L27.6867 17.6489L26.6006 16.8598L25.5143 17.6489L25.9293 16.3721L24.843 15.5828H26.1857L26.6007 14.3059ZM34.2007 14.3059L34.6157 15.5828H35.9583L34.8721 16.3721L35.2871 17.6489L34.2007 16.8598L33.1146 17.6489L33.5295 16.3721L32.4432 15.5828H33.7858L34.2007 14.3059ZM41.801 14.3059L42.216 15.5828H43.5586L42.4723 16.3721L42.8873 17.6489L41.8011 16.8598L40.7147 17.6489L41.1297 16.3721L40.0435 15.5828H41.3862L41.801 14.3059ZM7.60072 17.5367L8.01547 18.8137H9.35822L8.27197 19.6028L8.68697 20.8798L7.60072 20.0907L6.51447 20.8798L6.92934 19.6028L5.84309 18.8137H7.18584L7.60072 17.5367ZM15.2005 17.5367L15.6155 18.8137H16.958L15.8717 19.6028L16.2867 20.8798L15.2005 20.0907L14.1142 20.8798L14.5292 19.6028L13.4428 18.8137H14.7856L15.2005 17.5367ZM22.8007 17.5367L23.2156 18.8137H24.5583L23.472 19.6028L23.887 20.8798L22.8006 20.0907L21.7145 20.8798L22.1293 19.6028L21.0431 18.8137H22.3857L22.8007 17.5367ZM30.4008 17.5367L30.8158 18.8137H32.1585L31.0722 19.6028L31.4872 20.8798L30.401 20.0907L29.3146 20.8798L29.7296 19.6028L28.6433 18.8137H29.9861L30.4008 17.5367ZM38.0008 17.5367L38.4156 18.8137H39.7581L38.672 19.6028L39.0868 20.8798L38.0007 20.0907L36.9145 20.8798L37.3295 19.6028L36.2431 18.8137H37.5857L38.0008 17.5367ZM3.80047 20.7676L4.21547 22.0444H5.55797L4.47172 22.8337L4.88672 24.1106L3.80047 23.3214L2.71422 24.1106L3.12922 22.8337L2.04297 22.0444H3.38547L3.80047 20.7676ZM11.4005 20.7676L11.8155 22.0444H13.1582L12.0718 22.8337L12.4868 24.1106L11.4005 23.3214L10.3143 24.1106L10.7292 22.8337L9.64297 22.0444H10.9856L11.4005 20.7676ZM19.0007 20.7676L19.4157 22.0444H20.7583L19.6721 22.8337L20.0871 24.1106L19.0008 23.3214L17.9146 24.1106L18.3295 22.8337L17.2432 22.0444H18.586L19.0007 20.7676ZM26.6007 20.7676L27.0155 22.0444H28.358L27.2718 22.8337L27.6867 24.1106L26.6006 23.3214L25.5143 24.1106L25.9293 22.8337L24.843 22.0444H26.1857L26.6007 20.7676ZM34.2007 20.7676L34.6157 22.0444H35.9583L34.8721 22.8337L35.2871 24.1106L34.2007 23.3214L33.1146 24.1106L33.5295 22.8337L32.4432 22.0444H33.7858L34.2007 20.7676ZM41.801 20.7676L42.216 22.0444H43.5586L42.4723 22.8337L42.8873 24.1106L41.8011 23.3214L40.7147 24.1106L41.1297 22.8337L40.0435 22.0444H41.3862L41.801 20.7676ZM7.60072 23.9983L8.01547 25.2753H9.35822L8.27197 26.0644L8.68697 27.3414L7.60072 26.5523L6.51447 27.3414L6.92934 26.0644L5.84309 25.2753H7.18584L7.60072 23.9983ZM15.2005 23.9983L15.6155 25.2753H16.958L15.8717 26.0644L16.2867 27.3414L15.2005 26.5523L14.1142 27.3414L14.5292 26.0644L13.4428 25.2753H14.7856L15.2005 23.9983ZM22.8007 23.9983L23.2156 25.2753H24.5583L23.472 26.0644L23.887 27.3414L22.8006 26.5523L21.7145 27.3414L22.1293 26.0644L21.0431 25.2753H22.3857L22.8007 23.9983ZM30.4008 23.9983L30.8158 25.2753H32.1585L31.0722 26.0644L31.4872 27.3414L30.401 26.5523L29.3146 27.3414L29.7296 26.0644L28.6433 25.2753H29.9861L30.4008 23.9983ZM38.0008 23.9983L38.4156 25.2753H39.7581L38.672 26.0644L39.0868 27.3414L38.0007 26.5523L36.9145 27.3414L37.3295 26.0644L36.2431 25.2753H37.5857L38.0008 23.9983ZM3.80047 27.2292L4.21547 28.5061H5.55797L4.47172 29.2953L4.88672 30.5722L3.80047 29.7831L2.71422 30.5722L3.12922 29.2953L2.04297 28.5061H3.38547L3.80047 27.2292ZM11.4005 27.2292L11.8155 28.5061H13.1582L12.0718 29.2953L12.4868 30.5722L11.4005 29.7831L10.3143 30.5722L10.7292 29.2953L9.64297 28.5061H10.9856L11.4005 27.2292ZM19.0007 27.2292L19.4157 28.5061H20.7583L19.6721 29.2953L20.0871 30.5722L19.0008 29.7831L17.9146 30.5722L18.3295 29.2953L17.2432 28.5061H18.586L19.0007 27.2292ZM26.6007 27.2292L27.0155 28.5061H28.358L27.2718 29.2953L27.6867 30.5722L26.6006 29.7831L25.5143 30.5722L25.9293 29.2953L24.843 28.5061H26.1857L26.6007 27.2292ZM34.2007 27.2292L34.6157 28.5061H35.9583L34.8721 29.2953L35.2871 30.5722L34.2007 29.7831L33.1146 30.5722L33.5295 29.2953L32.4432 28.5061H33.7858L34.2007 27.2292ZM41.801 27.2292L42.216 28.5061H43.5586L42.4723 29.2953L42.8873 30.5722L41.8011 29.7831L40.7147 30.5722L41.1297 29.2953L40.0435 28.5061H41.3862L41.801 27.2292Z" fill="white"/>
</g>
<defs>
<clipPath id="clip0_704_113">
<rect width="80" height="60" fill="white"/>
</clipPath>
</defs>
</svg>
