<svg fill="none" height="52" viewBox="0 0 98 52" width="98" xmlns="http://www.w3.org/2000/svg"><g fill="#1fa087"><path d="m16.573 49.894c-.58 0-.928-.348-1.044-1.044-.174-.986-.261-1.914-.261-2.784.058-1.856 0-3.857-.174-6.003s-.29-3.509-.348-4.089l-.261-2.784-.348-4.959c-.116-.348-.174-.696-.174-1.044-1.624.522-2.61.841-2.958.957s-.986.232-1.914.348c-.696 0-1.102-.29-1.218-.87l-.087-.435c0-.348.203-.667.609-.957l1.653-.696 3.654-1.044-.783-10.614c-.348 0-.87-.058-1.566-.174-1.972-.116-4.553.087-7.743.609l-1.305.087h-.174c-.522 0-.87-.261-1.044-.783-.058-.116-.087-.261-.087-.435 0-.348.232-.667.696-.957.348-.29.87-.551 1.566-.783 2.436-.986 4.582-1.827 6.438-2.523.29-.174.58-.29.87-.348.348-.116.638-.232.87-.348l1.305-.52199.174-3.39301c.174-.986.319-1.624.435-1.914.174-.348.522-.493 1.044-.435 1.16-.174 1.74.029 1.74.609 0 .232-.232.841-.696 1.827-.406.986-.58 1.827-.522 2.523l1.305-.435c3.248-1.044 5.829-1.798 7.743-2.262l4.611-1.392c.986-.29 2.088-.551 3.306-.783 1.276-.232 2.117-.377 2.523-.435l.348-.087c.754 0 1.16.232 1.218.696v.174c0 .29-.087.609-.261.957s-.406.58-.696.696c-.58.116-1.45.232-2.61.348-1.044 0-2.03.116-2.958.348-3.132.812-5.568 1.508-7.308 2.088-1.74.58001-3.944 1.334-6.612 2.262l-.609.26101v2.60999c.232.116.58.232 1.044.348 2.726 1.044 4.176 3.074 4.35 6.09l-.087 2.958-.087 1.131 1.218-.348 5.742-1.566c.174-.058.406-.087.696-.087h.348c.464 0 .841.116 1.131.348s.435.522.435.87c0 .232-.116.435-.348.609s-.58.261-1.044.261-.812-.029-1.044-.087l-6.699 2.175c-.29.116-.522.261-.696.435-.116.174-.203.435-.261.783l-1.914 12.267c-.174 1.276-.261 2.61-.261 4.002 0 .986.058 2.523.174 4.611v1.305c0 1.218-.348 1.827-1.044 1.827zm-3.828-39.846c-.464.232-1.015.464-1.653.696-.58.174-1.044.377-1.392.609 1.508.116 2.523.174 3.045.174zm5.046 13.311c.058-.58.116-1.276.174-2.088.116-.812.174-1.508.174-2.088 0-1.276-.232-2.291-.696-3.045s-1.276-1.334-2.436-1.74l.783 9.744zm-1.218 7.482.87-4.959-1.479.609.435 4.35z"/><path d="m32.5572 41.803c-.638 0-1.044-.232-1.218-.696-.058-.174-.087-.406-.087-.696.058-2.146.087-4.64.087-7.482 0-2.32-.058-3.886-.174-4.698-.058-.87-.145-1.537-.261-2.001-.174-.522-.29-.928-.348-1.218.058-.29.261-.522.609-.696.406-.174.783-.261 1.131-.261.638.116.986.406 1.044.87.058.174.087.464.087.87-.058 1.044-.087 2.61-.087 4.698v.957h.261c.174-.29.377-.609.609-.957.232-.406.522-.841.87-1.305 1.508-2.726 2.987-4.147 4.437-4.263.464 0 .841.116 1.131.348.348.232.522.493.522.783s-.145.522-.435.696c-.754.29-1.392.667-1.914 1.131s-1.044 1.044-1.566 1.74c-1.102 1.508-1.943 2.987-2.523 4.437-.522 1.392-.841 2.929-.957 4.611-.058.232-.087.522-.087.87.058.29.087.493.087.609 0 .406-.029.725-.087.957-.116.464-.493.696-1.131.696z"/><path d="m44.4599 24.316c-.464 0-.841-.116-1.131-.348-.29-.29-.464-.609-.522-.957v-.174c0-.522.319-.928.957-1.218.058-.058.551-.203 1.479-.435l.522.261c.232.058.464.174.696.348.174.174.261.348.261.522s-.116.435-.348.783l-.522.522c-.348.464-.812.696-1.392.696zm.522 16.443c-.348 0-.609-.116-.783-.348-.232-.232-.406-.551-.522-.957-.116-1.276-.174-2.262-.174-2.958 0-1.218.058-3.103.174-5.655-.754-.406-1.131-.928-1.131-1.566 0-.174.058-.435.174-.783.174-.58.493-1.131.957-1.653.232-.348.609-.522 1.131-.522.29 0 .551.087.783.261s.377.377.435.609c.174.348.261.899.261 1.653l-.348 6.177.087 4.524.087.348c-.058.406-.319.696-.783.87z"/><path d="m56.2362 40.498c-1.45.116-2.784-.116-4.002-.696s-2.117-1.392-2.697-2.436c-.406-.812-.667-1.914-.783-3.306 0-.406-.029-.754-.087-1.044s-.116-.551-.174-.783c0-.29.029-.493.087-.609.348-.928.638-1.624.87-2.088.58-1.276 1.073-2.204 1.479-2.784.406-.696 1.102-1.305 2.088-1.827.754-.406 1.508-.609 2.262-.609 1.102 0 2.03.377 2.784 1.131.812.754 1.218 1.653 1.218 2.697 0 1.276-.551 2.378-1.653 3.306-.87.696-1.798 1.218-2.784 1.566s-2.233.609-3.741.783c0 1.102.203 2.059.609 2.871.29.638.783 1.16 1.479 1.566.754.348 1.537.522 2.349.522 1.218 0 2.204-.348 2.958-1.044.29-.232.551-.493.783-.783 0-.464.174-.928.522-1.392s.696-.696 1.044-.696c.522 0 .87.435 1.044 1.305.058.058.058.116 0 .174v.087c-.232 1.044-.899 1.972-2.001 2.784-1.102.754-2.32 1.189-3.654 1.305zm-3.393-8.7c1.334-.348 2.494-.928 3.48-1.74.58-.522.87-1.073.87-1.653s-.232-1.073-.696-1.479c-.406-.406-.899-.609-1.479-.609s-1.073.203-1.479.609c-.696.638-1.189 1.363-1.479 2.175-.29.754-.551 1.711-.783 2.871z"/><path d="m66.303 39.28c-.638 0-1.044-.203-1.218-.609-.232-.464-.348-.841-.348-1.131-.348-3.132-.58-5.597-.696-7.395 0-.348-.087-.754-.261-1.218-.174-.522-.261-.957-.261-1.305 0-.232.174-.609.522-1.131s.725-.783 1.131-.783c.522 0 .87.203 1.044.609.116.812.174 1.421.174 1.827v4.176c.116 0 .203.029.261.087l.348-.87c.232-.406.493-.899.783-1.479.29-.638.638-1.305 1.044-2.001.29-.522.783-1.131 1.479-1.827.812-.812 1.682-1.102 2.61-.87.928.116 1.537.696 1.827 1.74.29 1.276.435 2.117.435 2.523.058 1.74.087 4.321.087 7.743 0 .348-.029.609-.087.783-.116.464-.406.696-.87.696h-.174c-.348 0-.638-.203-.87-.609-.116-.464-.174-.87-.174-1.218-.058-1.276-.087-3.132-.087-5.568-.116-1.276-.232-2.233-.348-2.871 0-.116-.116-.58-.348-1.392-.754.696-1.16 1.131-1.218 1.305-.986 1.624-1.682 2.987-2.088 4.089-.174.464-.464 1.479-.87 3.045l-.435 1.74-.435 1.305c-.116.406-.435.609-.957.609z"/><path d="m90.1002 51.112c-.232-.232-.406-.551-.522-.957-.116-.464-.261-1.131-.435-2.001s-.29-1.624-.348-2.262c-.174-2.436-.319-4.698-.435-6.786-.058-2.146-.087-3.248-.087-3.306 0-.812-.145-1.421-.435-1.827-.116-.174-.174-.406-.174-.696.058-.348.087-.58.087-.696v-1.566h-.261c-.29.58-.522.986-.696 1.218-1.218 2.204-2.32 4.06-3.306 5.568-.522.696-1.247 1.421-2.175 2.175-.348.29-.812.435-1.392.435-1.044 0-1.74-.551-2.088-1.653-.29-.928-.406-1.74-.348-2.436.29-3.48 1.595-6.525 3.915-9.135 0-.058.058-.145.174-.261 1.218-1.218 2.465-1.827 3.741-1.827.348 0 1.044.116 2.088.348.696-1.276 1.073-2.378 1.131-3.306.174-5.8.986-10.759 2.436-14.877.232-.754.58-1.595 1.044-2.523.522-.986.87-1.682 1.044-2.088.174-.348.58-.783 1.218-1.305.29-.232.638-.348 1.044-.348.812 0 1.305.464 1.479 1.392v.696c0 1.566-.203 3.132-.609 4.698-.348 1.508-.899 3.306-1.653 5.394l-3.219 8.787c-.406 1.102-.609 2.117-.609 3.045l-.087 6.09c-.058.754-.087 1.943-.087 3.567l.087 4.176c.058 1.508.261 3.712.609 6.612l.261 2.523h.174c.522 0 .783.348.783 1.044l-.087 1.392c0 .29-.145.551-.435.783-.232.174-.522.261-.87.261-.406 0-.725-.116-.957-.348zm1.74-37.236c1.334-3.306 2.146-6.177 2.436-8.613-1.334 2.61-2.146 5.481-2.436 8.613zm-12.093 24.099c1.044-.58 2.32-2.088 3.828-4.524s2.407-4.35 2.697-5.742c-.232-.232-.551-.348-.957-.348-.116 0-.348.058-.696.174-.812.464-1.392.928-1.74 1.392-1.45 1.624-2.407 3.567-2.871 5.829-.058.174-.145 1.247-.261 3.219z"/></g></svg>